<?xml version="1.0" encoding="UTF-8"?>
<svg xmlns="http://www.w3.org/2000/svg" xmlns:xlink="http://www.w3.org/1999/xlink" width="99pt" height="37pt" viewBox="0 0 99 37" version="1.1">
<defs>
<clipPath id="clip1">
  <path d="M 64 2 L 86 2 L 86 23 L 64 23 Z M 64 2 "/>
</clipPath>
<clipPath id="clip2">
  <path d="M 84.253906 5.398438 C 81.175781 1.28125 74.65625 1.003906 69.6875 4.777344 C 64.71875 8.550781 63.1875 14.949219 66.265625 19.066406 C 69.34375 23.183594 75.867188 23.460938 80.832031 19.6875 C 85.800781 15.914062 87.332031 9.515625 84.253906 5.398438 Z M 84.253906 5.398438 "/>
</clipPath>
<clipPath id="clip3">
  <path d="M 53.597656 10.191406 L 79.265625 -9.3125 L 97.027344 14.453125 L 71.359375 33.953125 Z M 53.597656 10.191406 "/>
</clipPath>
<clipPath id="clip4">
  <path d="M 84.253906 5.398438 C 81.175781 1.28125 74.65625 1.003906 69.6875 4.777344 C 64.71875 8.550781 63.1875 14.949219 66.265625 19.066406 C 69.34375 23.183594 75.867188 23.460938 80.832031 19.6875 C 85.800781 15.914062 87.332031 9.515625 84.253906 5.398438 Z M 84.253906 5.398438 "/>
</clipPath>
<clipPath id="clip5">
  <path d="M 60.746094 11.777344 L 78.71875 -1.878906 L 89.875 13.046875 L 71.902344 26.703125 Z M 60.746094 11.777344 "/>
</clipPath>
<clipPath id="clip6">
  <path d="M 64 2 L 86 2 L 86 23 L 64 23 Z M 64 2 "/>
</clipPath>
<clipPath id="clip7">
  <path d="M 84.253906 5.398438 C 81.175781 1.28125 74.65625 1.003906 69.6875 4.777344 C 64.71875 8.550781 63.1875 14.949219 66.265625 19.066406 C 69.34375 23.183594 75.867188 23.460938 80.832031 19.6875 C 85.800781 15.914062 87.332031 9.515625 84.253906 5.398438 Z M 84.253906 5.398438 "/>
</clipPath>
<clipPath id="clip8">
  <path d="M 53.597656 10.191406 L 79.265625 -9.3125 L 97.027344 14.453125 L 71.359375 33.953125 Z M 53.597656 10.191406 "/>
</clipPath>
<clipPath id="clip9">
  <path d="M 84.253906 5.398438 C 81.175781 1.28125 74.65625 1.003906 69.6875 4.777344 C 64.71875 8.550781 63.1875 14.949219 66.265625 19.066406 C 69.34375 23.183594 75.867188 23.460938 80.832031 19.6875 C 85.800781 15.914062 87.332031 9.515625 84.253906 5.398438 Z M 84.253906 5.398438 "/>
</clipPath>
<clipPath id="clip10">
  <path d="M 63.308594 20.742188 L 69.511719 -1.070312 L 87.332031 4.082031 L 81.125 25.890625 Z M 63.308594 20.742188 "/>
</clipPath>
<clipPath id="clip11">
  <path d="M 64 2 L 86 2 L 86 23 L 64 23 Z M 64 2 "/>
</clipPath>
<clipPath id="clip12">
  <path d="M 84.253906 5.398438 C 81.175781 1.28125 74.65625 1.003906 69.6875 4.777344 C 64.71875 8.550781 63.1875 14.949219 66.265625 19.066406 C 69.34375 23.183594 75.867188 23.460938 80.832031 19.6875 C 85.800781 15.914062 87.332031 9.515625 84.253906 5.398438 Z M 84.253906 5.398438 "/>
</clipPath>
<clipPath id="clip13">
  <path d="M 53.597656 10.191406 L 79.265625 -9.3125 L 97.027344 14.453125 L 71.359375 33.953125 Z M 53.597656 10.191406 "/>
</clipPath>
<clipPath id="clip14">
  <path d="M 84.253906 5.398438 C 81.175781 1.28125 74.65625 1.003906 69.6875 4.777344 C 64.71875 8.550781 63.1875 14.949219 66.265625 19.066406 C 69.34375 23.183594 75.867188 23.460938 80.832031 19.6875 C 85.800781 15.914062 87.332031 9.515625 84.253906 5.398438 Z M 84.253906 5.398438 "/>
</clipPath>
<clipPath id="clip15">
  <path d="M 60.746094 11.777344 L 78.71875 -1.878906 L 89.875 13.046875 L 71.902344 26.703125 Z M 60.746094 11.777344 "/>
</clipPath>
<clipPath id="clip16">
  <path d="M 64 2 L 86 2 L 86 23 L 64 23 Z M 64 2 "/>
</clipPath>
<clipPath id="clip17">
  <path d="M 84.253906 5.398438 C 81.175781 1.28125 74.65625 1.003906 69.6875 4.777344 C 64.71875 8.550781 63.1875 14.949219 66.265625 19.066406 C 69.34375 23.183594 75.867188 23.460938 80.832031 19.6875 C 85.800781 15.914062 87.332031 9.515625 84.253906 5.398438 Z M 84.253906 5.398438 "/>
</clipPath>
<clipPath id="clip18">
  <path d="M 53.597656 10.191406 L 79.265625 -9.3125 L 97.027344 14.453125 L 71.359375 33.953125 Z M 53.597656 10.191406 "/>
</clipPath>
<clipPath id="clip19">
  <path d="M 84.253906 5.398438 C 81.175781 1.28125 74.65625 1.003906 69.6875 4.777344 C 64.71875 8.550781 63.1875 14.949219 66.265625 19.066406 C 69.34375 23.183594 75.867188 23.460938 80.832031 19.6875 C 85.800781 15.914062 87.332031 9.515625 84.253906 5.398438 Z M 84.253906 5.398438 "/>
</clipPath>
<clipPath id="clip20">
  <path d="M 63.308594 20.742188 L 69.511719 -1.070312 L 87.332031 4.082031 L 81.125 25.890625 Z M 63.308594 20.742188 "/>
</clipPath>
<clipPath id="clip21">
  <path d="M 64 2 L 86 2 L 86 23 L 64 23 Z M 64 2 "/>
</clipPath>
<clipPath id="clip22">
  <path d="M 84.253906 5.398438 C 81.175781 1.28125 74.65625 1.003906 69.6875 4.777344 C 64.71875 8.550781 63.1875 14.949219 66.265625 19.066406 C 69.34375 23.183594 75.867188 23.460938 80.832031 19.6875 C 85.800781 15.914062 87.332031 9.515625 84.253906 5.398438 Z M 84.253906 5.398438 "/>
</clipPath>
<clipPath id="clip23">
  <path d="M 53.597656 10.191406 L 79.265625 -9.3125 L 97.027344 14.453125 L 71.359375 33.953125 Z M 53.597656 10.191406 "/>
</clipPath>
<clipPath id="clip24">
  <path d="M 84.253906 5.398438 C 81.175781 1.28125 74.65625 1.003906 69.6875 4.777344 C 64.71875 8.550781 63.1875 14.949219 66.265625 19.066406 C 69.34375 23.183594 75.867188 23.460938 80.832031 19.6875 C 85.800781 15.914062 87.332031 9.515625 84.253906 5.398438 Z M 84.253906 5.398438 "/>
</clipPath>
<clipPath id="clip25">
  <path d="M 64 2 L 86 2 L 86 23 L 64 23 Z M 64 2 "/>
</clipPath>
<clipPath id="clip26">
  <path d="M 84.253906 5.398438 C 81.175781 1.28125 74.65625 1.003906 69.6875 4.777344 C 64.71875 8.550781 63.1875 14.949219 66.265625 19.066406 C 69.34375 23.183594 75.867188 23.460938 80.832031 19.6875 C 85.800781 15.914062 87.332031 9.515625 84.253906 5.398438 Z M 84.253906 5.398438 "/>
</clipPath>
<clipPath id="clip27">
  <path d="M 53.597656 10.191406 L 79.265625 -9.3125 L 97.027344 14.453125 L 71.359375 33.953125 Z M 53.597656 10.191406 "/>
</clipPath>
<clipPath id="clip28">
  <path d="M 70 6 L 82 6 L 82 19 L 70 19 Z M 70 6 "/>
</clipPath>
<clipPath id="clip29">
  <path d="M 84.253906 5.398438 C 81.175781 1.28125 74.65625 1.003906 69.6875 4.777344 C 64.71875 8.550781 63.1875 14.949219 66.265625 19.066406 C 69.34375 23.183594 75.867188 23.460938 80.832031 19.6875 C 85.800781 15.914062 87.332031 9.515625 84.253906 5.398438 Z M 84.253906 5.398438 "/>
</clipPath>
<clipPath id="clip30">
  <path d="M 53.597656 10.191406 L 79.265625 -9.3125 L 97.027344 14.453125 L 71.359375 33.953125 Z M 53.597656 10.191406 "/>
</clipPath>
</defs>
<g id="surface1">
<path style=" stroke:none;fill-rule:nonzero;fill:rgb(0%,0%,0%);fill-opacity:1;" d="M 51.109375 12.253906 L 55.808594 11.949219 C 55.917969 12.722656 56.113281 13.300781 56.4375 13.714844 C 56.953125 14.363281 57.667969 14.6875 58.617188 14.6875 C 59.3125 14.6875 59.867188 14.527344 60.242188 14.183594 C 60.601562 13.914062 60.816406 13.480469 60.816406 13.03125 C 60.816406 12.597656 60.617188 12.183594 60.28125 11.914062 C 59.921875 11.589844 59.082031 11.265625 57.757812 10.976562 C 55.597656 10.488281 54.039062 9.839844 53.128906 9.011719 C 52.21875 8.234375 51.699219 7.101562 51.734375 5.894531 C 51.734375 5.0625 51.984375 4.234375 52.449219 3.550781 C 52.984375 2.777344 53.71875 2.164062 54.59375 1.820312 C 55.542969 1.40625 56.863281 1.191406 58.527344 1.191406 C 60.566406 1.191406 62.121094 1.566406 63.191406 2.34375 C 64.265625 3.101562 64.910156 4.324219 65.105469 6 L 60.457031 6.273438 C 60.332031 5.550781 60.082031 5.027344 59.671875 4.6875 C 59.261719 4.34375 58.722656 4.179688 58.027344 4.179688 C 57.453125 4.179688 57.027344 4.308594 56.738281 4.542969 C 56.472656 4.757812 56.292969 5.082031 56.3125 5.441406 C 56.3125 5.714844 56.453125 5.964844 56.667969 6.128906 C 56.902344 6.34375 57.453125 6.542969 58.332031 6.722656 C 60.492188 7.191406 62.03125 7.660156 62.980469 8.144531 C 63.925781 8.632812 64.605469 9.226562 65.015625 9.929688 C 65.445312 10.652344 65.660156 11.480469 65.640625 12.328125 C 65.640625 13.335938 65.355469 14.347656 64.785156 15.191406 C 64.195312 16.074219 63.371094 16.761719 62.40625 17.175781 C 61.386719 17.625 60.101562 17.859375 58.5625 17.859375 C 55.847656 17.859375 53.96875 17.335938 52.914062 16.273438 C 51.859375 15.210938 51.234375 13.878906 51.109375 12.253906 Z M 1.214844 17.589844 L 1.214844 1.476562 L 9.457031 1.476562 C 10.976562 1.476562 12.15625 1.605469 12.960938 1.875 C 13.746094 2.125 14.445312 2.648438 14.910156 3.351562 C 15.429688 4.128906 15.679688 5.027344 15.660156 5.964844 C 15.714844 7.550781 14.910156 9.066406 13.53125 9.859375 C 12.996094 10.164062 12.40625 10.382812 11.800781 10.488281 C 12.246094 10.613281 12.691406 10.832031 13.085938 11.082031 C 13.390625 11.335938 13.640625 11.625 13.871094 11.929688 C 14.140625 12.238281 14.375 12.578125 14.570312 12.941406 L 16.964844 17.609375 L 11.351562 17.609375 L 8.707031 12.652344 C 8.367188 12.019531 8.082031 11.605469 7.8125 11.40625 C 7.457031 11.15625 7.027344 11.03125 6.597656 11.03125 L 6.167969 11.03125 L 6.167969 17.570312 L 1.214844 17.570312 Z M 6.167969 8 L 8.257812 8 C 8.707031 7.964844 9.136719 7.894531 9.566406 7.785156 C 9.886719 7.730469 10.171875 7.550781 10.367188 7.28125 C 10.851562 6.632812 10.78125 5.714844 10.191406 5.15625 C 9.867188 4.882812 9.242188 4.738281 8.347656 4.738281 L 6.167969 4.738281 Z M 0.0898438 31.394531 L 4.792969 31.089844 C 4.898438 31.863281 5.09375 32.441406 5.417969 32.855469 C 5.917969 33.503906 6.652344 33.847656 7.597656 33.847656 C 8.296875 33.847656 8.847656 33.683594 9.226562 33.339844 C 9.582031 33.054688 9.796875 32.636719 9.796875 32.1875 C 9.796875 31.753906 9.601562 31.339844 9.261719 31.070312 C 8.902344 30.746094 8.0625 30.421875 6.722656 30.132812 C 4.558594 29.648438 3.003906 29 2.09375 28.167969 C 1.179688 27.394531 0.664062 26.257812 0.699219 25.050781 C 0.699219 24.222656 0.949219 23.394531 1.414062 22.707031 C 1.949219 21.933594 2.683594 21.320312 3.558594 20.976562 C 4.503906 20.5625 5.828125 20.347656 7.492188 20.347656 C 9.527344 20.347656 11.085938 20.726562 12.15625 21.5 C 13.230469 22.277344 13.855469 23.484375 14.050781 25.160156 L 9.402344 25.429688 C 9.277344 24.707031 9.027344 24.1875 8.617188 23.84375 C 8.222656 23.5 7.667969 23.339844 6.972656 23.355469 C 6.402344 23.355469 5.972656 23.484375 5.683594 23.734375 C 5.398438 23.953125 5.238281 24.277344 5.257812 24.636719 C 5.257812 24.90625 5.398438 25.160156 5.613281 25.320312 C 5.847656 25.539062 6.402344 25.734375 7.277344 25.917969 C 9.441406 26.386719 10.976562 26.851562 11.925781 27.339844 C 12.871094 27.828125 13.550781 28.421875 13.960938 29.125 C 14.390625 29.84375 14.605469 30.675781 14.605469 31.503906 C 14.605469 32.511719 14.300781 33.503906 13.746094 34.351562 C 13.15625 35.234375 12.335938 35.917969 11.371094 36.332031 C 10.351562 36.785156 9.0625 37.019531 7.527344 37.019531 C 4.808594 37.019531 2.933594 36.496094 1.878906 35.433594 C 0.824219 34.351562 0.234375 33.015625 0.0898438 31.394531 Z M 0.0898438 31.394531 "/>
<path style=" stroke:none;fill-rule:nonzero;fill:rgb(0%,0%,0%);fill-opacity:1;" d="M 23.867188 30.132812 L 28.191406 31.449219 C 27.960938 32.546875 27.476562 33.59375 26.816406 34.511719 C 26.207031 35.324219 25.402344 35.953125 24.492188 36.371094 C 23.5625 36.785156 22.382812 37 20.953125 37 C 19.21875 37 17.789062 36.746094 16.695312 36.242188 C 15.589844 35.738281 14.640625 34.835938 13.835938 33.558594 C 13.03125 32.277344 12.640625 30.636719 12.640625 28.636719 C 12.640625 25.96875 13.335938 23.914062 14.75 22.492188 C 16.160156 21.066406 18.144531 20.347656 20.71875 20.347656 C 22.738281 20.347656 24.3125 20.761719 25.472656 21.574219 C 26.617188 22.402344 27.476562 23.664062 28.046875 25.359375 L 23.6875 26.332031 C 23.578125 25.953125 23.417969 25.574219 23.203125 25.25 C 22.9375 24.871094 22.597656 24.582031 22.183594 24.367188 C 21.773438 24.148438 21.308594 24.058594 20.84375 24.058594 C 19.71875 24.058594 18.859375 24.511719 18.269531 25.429688 C 17.824219 26.097656 17.589844 27.160156 17.589844 28.601562 C 17.589844 30.386719 17.859375 31.609375 18.394531 32.277344 C 18.933594 32.945312 19.683594 33.269531 20.664062 33.269531 C 21.613281 33.269531 22.328125 33 22.8125 32.476562 C 23.292969 31.917969 23.652344 31.144531 23.867188 30.132812 Z M 33.964844 20.617188 L 38.898438 20.617188 L 38.898438 26.257812 L 44.296875 26.257812 L 44.296875 20.617188 L 49.269531 20.617188 L 49.269531 36.730469 L 44.296875 36.730469 L 44.296875 30.207031 L 38.898438 30.207031 L 38.898438 36.730469 L 33.964844 36.730469 Z M 33.964844 20.617188 "/>
<path style=" stroke:none;fill-rule:nonzero;fill:rgb(0%,0%,0%);fill-opacity:1;" d="M 48.589844 28.671875 C 48.589844 26.042969 49.320312 23.988281 50.769531 22.527344 C 52.21875 21.066406 54.253906 20.328125 56.847656 20.328125 C 59.511719 20.328125 61.546875 21.050781 62.996094 22.492188 C 64.445312 23.933594 65.160156 25.953125 65.160156 28.546875 C 65.160156 30.441406 64.835938 31.972656 64.210938 33.179688 C 63.605469 34.367188 62.65625 35.34375 61.496094 35.992188 C 60.296875 36.65625 58.8125 37 57.042969 37 C 55.238281 37 53.753906 36.710938 52.574219 36.136719 C 51.359375 35.523438 50.359375 34.566406 49.695312 33.394531 C 48.964844 32.132812 48.589844 30.566406 48.589844 28.671875 Z M 53.523438 28.691406 C 53.523438 30.3125 53.824219 31.484375 54.414062 32.207031 C 55.007812 32.910156 55.828125 33.269531 56.863281 33.269531 C 57.917969 33.269531 58.742188 32.925781 59.332031 32.222656 C 59.921875 31.519531 60.207031 30.277344 60.207031 28.476562 C 60.207031 26.960938 59.902344 25.84375 59.296875 25.160156 C 58.6875 24.457031 57.867188 24.113281 56.828125 24.113281 C 55.917969 24.078125 55.042969 24.472656 54.433594 25.175781 C 53.824219 25.878906 53.523438 27.050781 53.523438 28.691406 Z M 70.21875 28.671875 C 70.21875 26.042969 70.953125 23.988281 72.398438 22.527344 C 73.847656 21.066406 75.886719 20.328125 78.476562 20.328125 C 81.140625 20.328125 83.195312 21.050781 84.625 22.492188 C 86.058594 23.933594 86.789062 25.953125 86.789062 28.546875 C 86.789062 30.441406 86.46875 31.972656 85.84375 33.179688 C 85.234375 34.367188 84.285156 35.34375 83.125 35.992188 C 81.925781 36.65625 80.445312 37 78.675781 37 C 76.867188 37 75.382812 36.710938 74.203125 36.136719 C 72.988281 35.523438 71.988281 34.566406 71.328125 33.394531 C 70.59375 32.132812 70.21875 30.566406 70.21875 28.671875 Z M 75.152344 28.691406 C 75.152344 30.3125 75.457031 31.484375 76.046875 32.207031 C 76.636719 32.910156 77.457031 33.269531 78.496094 33.269531 C 79.550781 33.269531 80.371094 32.925781 80.960938 32.222656 C 81.550781 31.519531 81.839844 30.277344 81.839844 28.476562 C 81.839844 26.960938 81.535156 25.84375 80.925781 25.160156 C 80.320312 24.457031 79.496094 24.113281 78.460938 24.113281 C 77.546875 24.078125 76.652344 24.472656 76.0625 25.175781 C 75.457031 25.878906 75.152344 27.050781 75.152344 28.691406 Z M 75.152344 28.691406 "/>
<path style=" stroke:none;fill-rule:nonzero;fill:rgb(0%,0%,0%);fill-opacity:1;" d="M 86.269531 20.617188 L 91.207031 20.617188 L 91.207031 32.765625 L 98.910156 32.765625 L 98.910156 36.730469 L 86.253906 36.730469 L 86.253906 20.617188 Z M 86.269531 20.617188 "/>
<path style=" stroke:none;fill-rule:nonzero;fill:rgb(100%,100%,100%);fill-opacity:1;" d="M 84.253906 5.398438 C 81.175781 1.28125 74.65625 1.003906 69.6875 4.777344 C 64.71875 8.550781 63.1875 14.949219 66.265625 19.066406 C 69.34375 23.183594 75.867188 23.460938 80.832031 19.6875 C 85.800781 15.914062 87.332031 9.515625 84.253906 5.398438 Z M 84.253906 5.398438 "/>
<g clip-path="url(#clip1)" clip-rule="nonzero">
<g clip-path="url(#clip2)" clip-rule="nonzero">
<path style=" stroke:none;fill-rule:nonzero;fill:rgb(100%,100%,100%);fill-opacity:1;" d="M 53.597656 10.191406 L 79.265625 -9.3125 L 97.027344 14.453125 L 71.359375 33.953125 Z M 53.597656 10.191406 "/>
<g clip-path="url(#clip3)" clip-rule="nonzero">
<path style=" stroke:none;fill-rule:nonzero;fill:rgb(100%,100%,100%);fill-opacity:1;" d="M 84.253906 5.398438 C 81.175781 1.28125 74.65625 1.003906 69.6875 4.777344 C 64.71875 8.550781 63.1875 14.949219 66.265625 19.066406 C 69.34375 23.183594 75.867188 23.460938 80.832031 19.6875 C 85.800781 15.914062 87.332031 9.515625 84.253906 5.398438 Z M 84.253906 5.398438 "/>
<g clip-path="url(#clip4)" clip-rule="nonzero">
<path style=" stroke:none;fill-rule:nonzero;fill:rgb(100%,100%,100%);fill-opacity:1;" d="M 60.746094 11.777344 L 78.71875 -1.878906 L 89.875 13.046875 L 71.902344 26.703125 Z M 60.746094 11.777344 "/>
<g clip-path="url(#clip5)" clip-rule="nonzero">
<path style="fill-rule:nonzero;fill:rgb(100%,100%,100%);fill-opacity:1;stroke-width:4;stroke-linecap:butt;stroke-linejoin:miter;stroke:rgb(0%,0%,0%);stroke-opacity:1;stroke-miterlimit:10;" d="M 483.499307 67.89617 C 483.496356 39.288747 455.296268 16.11077 420.497424 16.103917 C 385.69858 16.097063 357.491126 39.295208 357.494078 67.902631 C 357.497029 96.510054 385.714568 119.701182 420.495961 119.694884 C 455.294805 119.701738 483.502259 96.503593 483.499307 67.89617 Z M 483.499307 67.89617 " transform="matrix(0.142764,-0.108464,0.107584,0.143931,7.923195,48.068342)"/>
</g>
</g>
</g>
</g>
</g>
<g clip-path="url(#clip6)" clip-rule="nonzero">
<g clip-path="url(#clip7)" clip-rule="nonzero">
<g clip-path="url(#clip8)" clip-rule="nonzero">
<g clip-path="url(#clip9)" clip-rule="nonzero">
<g clip-path="url(#clip10)" clip-rule="nonzero">
<path style="fill:none;stroke-width:4;stroke-linecap:butt;stroke-linejoin:miter;stroke:rgb(0%,0%,0%);stroke-opacity:1;stroke-miterlimit:10;" d="M 357.798268 17.003096 L 483.69456 16.993763 L 483.695083 120.693423 L 357.798791 120.702756 Z M 357.798268 17.003096 " transform="matrix(0.142766,-0.108462,0.107582,0.143933,7.835587,48.137386)"/>
</g>
</g>
</g>
</g>
</g>
<g clip-path="url(#clip11)" clip-rule="nonzero">
<g clip-path="url(#clip12)" clip-rule="nonzero">
<g clip-path="url(#clip13)" clip-rule="nonzero">
<g clip-path="url(#clip14)" clip-rule="nonzero">
<path style="fill:none;stroke-width:4;stroke-linecap:butt;stroke-linejoin:miter;stroke:rgb(0%,0%,0%);stroke-opacity:1;stroke-miterlimit:10;" d="M 483.499307 67.89617 C 483.496356 39.288747 455.296268 16.11077 420.497424 16.103917 C 385.69858 16.097063 357.491126 39.295208 357.494078 67.902631 C 357.497029 96.510054 385.714568 119.701182 420.495961 119.694884 C 455.294805 119.701738 483.502259 96.503593 483.499307 67.89617 Z M 483.499307 67.89617 " transform="matrix(0.142764,-0.108464,0.107584,0.143931,7.923195,48.068342)"/>
<path style=" stroke:none;fill-rule:nonzero;fill:rgb(100%,100%,100%);fill-opacity:1;" d="M 60.746094 11.777344 L 78.71875 -1.878906 L 89.875 13.046875 L 71.902344 26.703125 Z M 60.746094 11.777344 "/>
<g clip-path="url(#clip15)" clip-rule="nonzero">
<path style="fill-rule:nonzero;fill:rgb(100%,100%,100%);fill-opacity:1;stroke-width:4;stroke-linecap:butt;stroke-linejoin:miter;stroke:rgb(0%,0%,0%);stroke-opacity:1;stroke-miterlimit:10;" d="M 483.499307 67.89617 C 483.496356 39.288747 455.296268 16.11077 420.497424 16.103917 C 385.69858 16.097063 357.491126 39.295208 357.494078 67.902631 C 357.497029 96.510054 385.714568 119.701182 420.495961 119.694884 C 455.294805 119.701738 483.502259 96.503593 483.499307 67.89617 Z M 483.499307 67.89617 " transform="matrix(0.142764,-0.108464,0.107584,0.143931,7.923195,48.068342)"/>
</g>
</g>
</g>
</g>
</g>
<g clip-path="url(#clip16)" clip-rule="nonzero">
<g clip-path="url(#clip17)" clip-rule="nonzero">
<g clip-path="url(#clip18)" clip-rule="nonzero">
<g clip-path="url(#clip19)" clip-rule="nonzero">
<g clip-path="url(#clip20)" clip-rule="nonzero">
<path style="fill:none;stroke-width:4;stroke-linecap:butt;stroke-linejoin:miter;stroke:rgb(0%,0%,0%);stroke-opacity:1;stroke-miterlimit:10;" d="M 357.798268 17.003096 L 483.69456 16.993763 L 483.695083 120.693423 L 357.798791 120.702756 Z M 357.798268 17.003096 " transform="matrix(0.142766,-0.108462,0.107582,0.143933,7.835587,48.137386)"/>
</g>
</g>
</g>
</g>
</g>
<g clip-path="url(#clip21)" clip-rule="nonzero">
<g clip-path="url(#clip22)" clip-rule="nonzero">
<g clip-path="url(#clip23)" clip-rule="nonzero">
<g clip-path="url(#clip24)" clip-rule="nonzero">
<path style="fill:none;stroke-width:4;stroke-linecap:butt;stroke-linejoin:miter;stroke:rgb(0%,0%,0%);stroke-opacity:1;stroke-miterlimit:10;" d="M 330.893268 -14.195103 L 510.695933 -14.207464 L 510.685585 150.902411 L 330.895965 150.897463 Z M 330.893268 -14.195103 " transform="matrix(0.142764,-0.108464,0.107584,0.143931,7.885267,48.124555)"/>
</g>
</g>
</g>
</g>
<g clip-path="url(#clip25)" clip-rule="nonzero">
<g clip-path="url(#clip26)" clip-rule="nonzero">
<g clip-path="url(#clip27)" clip-rule="nonzero">
<path style="fill:none;stroke-width:4;stroke-linecap:butt;stroke-linejoin:miter;stroke:rgb(0%,0%,0%);stroke-opacity:1;stroke-miterlimit:10;" d="M 483.499307 67.89617 C 483.496356 39.288747 455.296268 16.11077 420.497424 16.103917 C 385.69858 16.097063 357.491126 39.295208 357.494078 67.902631 C 357.497029 96.510054 385.714568 119.701182 420.495961 119.694884 C 455.294805 119.701738 483.502259 96.503593 483.499307 67.89617 Z M 483.499307 67.89617 " transform="matrix(0.142764,-0.108464,0.107584,0.143931,7.923195,48.068342)"/>
</g>
</g>
</g>
<g clip-path="url(#clip28)" clip-rule="nonzero">
<g clip-path="url(#clip29)" clip-rule="nonzero">
<g clip-path="url(#clip30)" clip-rule="nonzero">
<path style=" stroke:none;fill-rule:nonzero;fill:rgb(0%,0%,0%);fill-opacity:1;" d="M 70.238281 11.046875 L 72.023438 9.785156 L 74.222656 12.941406 C 74.597656 13.445312 74.882812 13.984375 75.097656 14.582031 C 75.222656 15.03125 75.1875 15.515625 75.007812 15.949219 C 74.777344 16.492188 74.402344 16.941406 73.902344 17.265625 C 73.3125 17.679688 72.8125 17.914062 72.382812 17.988281 C 71.96875 18.058594 71.542969 17.988281 71.148438 17.804688 C 70.71875 17.589844 70.34375 17.285156 70.058594 16.886719 L 71.59375 15.445312 C 71.71875 15.644531 71.882812 15.824219 72.058594 15.96875 C 72.183594 16.058594 72.328125 16.113281 72.488281 16.113281 C 72.613281 16.113281 72.738281 16.058594 72.828125 15.984375 C 73.007812 15.878906 73.132812 15.660156 73.113281 15.445312 C 73.0625 15.140625 72.9375 14.832031 72.738281 14.597656 Z M 75.597656 13.046875 L 77.226562 11.75 C 77.40625 11.96875 77.636719 12.128906 77.886719 12.21875 C 78.246094 12.328125 78.621094 12.253906 78.925781 12.019531 C 79.140625 11.875 79.316406 11.679688 79.390625 11.425781 C 79.496094 11.101562 79.316406 10.742188 78.996094 10.632812 C 78.941406 10.613281 78.886719 10.597656 78.835938 10.597656 C 78.621094 10.578125 78.246094 10.667969 77.691406 10.902344 C 76.777344 11.28125 76.0625 11.425781 75.527344 11.371094 C 75.007812 11.316406 74.527344 11.046875 74.242188 10.597656 C 74.027344 10.289062 73.917969 9.929688 73.902344 9.570312 C 73.902344 9.15625 74.007812 8.742188 74.242188 8.398438 C 74.582031 7.910156 74.992188 7.496094 75.492188 7.171875 C 76.242188 6.648438 76.902344 6.398438 77.476562 6.398438 C 78.046875 6.398438 78.585938 6.667969 79.085938 7.226562 L 77.476562 8.507812 C 77.15625 8.09375 76.546875 8 76.136719 8.328125 L 76.082031 8.378906 C 75.902344 8.488281 75.777344 8.652344 75.707031 8.847656 C 75.652344 8.992188 75.6875 9.15625 75.777344 9.28125 C 75.847656 9.371094 75.957031 9.445312 76.082031 9.445312 C 76.226562 9.460938 76.476562 9.390625 76.832031 9.226562 C 77.726562 8.847656 78.40625 8.632812 78.871094 8.5625 C 79.265625 8.488281 79.675781 8.523438 80.050781 8.6875 C 80.390625 8.832031 80.675781 9.082031 80.871094 9.390625 C 81.121094 9.75 81.265625 10.183594 81.285156 10.632812 C 81.300781 11.101562 81.175781 11.550781 80.925781 11.949219 C 80.605469 12.433594 80.195312 12.851562 79.710938 13.175781 C 78.726562 13.859375 77.921875 14.148438 77.28125 14.039062 C 76.582031 13.929688 76.011719 13.570312 75.597656 13.046875 Z M 75.597656 13.046875 "/>
</g>
</g>
</g>
</g>
</svg>
